<?xml version="1.0" standalone="no"?>
<!DOCTYPE svg PUBLIC "-//W3C//DTD SVG 20010904//EN"
 "http://www.w3.org/TR/2001/REC-SVG-20010904/DTD/svg10.dtd">
<svg version="1.0" xmlns="http://www.w3.org/2000/svg"
 width="736.000000pt" height="736.000000pt" viewBox="0 0 736.000000 736.000000"
 preserveAspectRatio="xMidYMid meet">
<metadata>
Created by potrace 1.11, written by Peter Selinger 2001-2013
</metadata>
<g transform="translate(0.000000,736.000000) scale(0.100000,-0.100000)"
fill="#000000" stroke="none">
<path d="M410 3680 l0 -3680 3270 0 3270 0 0 3680 0 3680 -3270 0 -3270 0 0
-3680z m4970 1010 c0 -95 -1 -100 -22 -105 -31 -7 -219 -45 -224 -45 -2 0 -4
-25 -4 -55 0 -52 1 -55 23 -50 86 20 207 41 212 37 3 -3 5 -45 5 -93 0 -104 4
-99 -120 -124 -129 -25 -120 -19 -120 -81 0 -30 2 -54 4 -54 2 0 58 11 126 25
68 14 127 25 132 25 5 0 7 -44 6 -97 l-3 -98 -225 -47 c-124 -25 -237 -49
-252 -52 l-28 -5 0 409 c0 226 1 410 3 410 1 1 106 23 232 49 127 27 236 50
243 50 9 1 12 -25 12 -99z m-673 -98 c141 -72 136 -281 -9 -376 -26 -17 -47
-33 -47 -36 -1 -3 13 -11 29 -18 17 -8 41 -28 54 -45 22 -31 120 -247 114
-252 -3 -3 -216 -47 -236 -49 -8 -1 -29 38 -52 98 -43 110 -70 146 -110 146
-27 0 -27 -1 -33 -82 -4 -46 -7 -110 -7 -144 l0 -61 -111 -22 c-61 -13 -114
-19 -118 -14 -3 4 -5 188 -3 408 l2 401 163 32 c89 17 171 34 182 36 44 10
142 -2 182 -22z m-625 -347 c-3 -295 -5 -311 -33 -401 -16 -50 -31 -72 -78
-117 -49 -47 -70 -59 -140 -81 -60 -19 -104 -26 -162 -26 -91 0 -138 16 -187
63 -80 76 -94 149 -90 467 l3 235 105 22 c58 12 110 22 117 23 9 0 13 -67 15
-269 l3 -269 24 -26 c18 -19 35 -26 63 -26 54 0 76 15 99 63 17 38 19 69 19
305 0 238 2 263 17 269 34 13 179 41 203 40 l24 -2 -2 -270z m-742 38 l0 -88
-116 -175 c-187 -285 -215 -330 -200 -330 7 0 80 14 161 30 82 17 152 27 156
23 5 -5 5 -49 2 -99 l-6 -91 -306 -62 c-168 -34 -314 -65 -323 -67 -16 -5 -18
4 -18 85 l0 91 170 252 c94 138 169 252 168 253 -2 2 -64 -10 -138 -26 -197
-42 -181 -48 -178 69 l3 97 295 62 c162 34 303 62 313 62 15 1 17 -9 17 -86z
m-810 -415 c56 -172 111 -342 122 -376 11 -35 16 -67 12 -71 -5 -4 -58 -18
-118 -30 -122 -26 -116 -28 -136 55 -8 30 -16 57 -20 59 -7 4 -218 -40 -226
-48 -3 -3 -14 -38 -24 -77 -10 -39 -20 -73 -22 -75 -5 -5 -253 -54 -256 -51
-2 3 267 869 271 872 1 1 56 13 122 27 193 41 158 77 275 -285z m3880 -45 c12
-133 10 -506 -2 -519 -6 -5 -625 -142 -1048 -232 -52 -11 -990 -214 -2085
-451 -1094 -238 -1997 -433 -2005 -434 -18 -3 -84 110 -145 251 -74 168 -140
372 -121 372 2 0 253 54 557 121 305 66 611 132 682 147 119 24 127 27 127 49
0 22 -3 23 -40 17 l-40 -7 0 41 0 41 58 11 c31 6 85 18 120 26 91 20 92 20 92
-25 0 -39 -1 -40 -43 -48 -33 -7 -43 -13 -45 -31 -4 -25 6 -27 59 -12 32 9 37
15 43 48 3 20 6 49 6 64 0 24 5 28 43 35 l42 9 5 -58 c3 -32 8 -58 13 -58 4 0
11 0 17 0 5 0 10 28 12 62 l3 63 55 12 c30 7 77 14 105 14 42 1 53 -3 73 -26
13 -15 24 -26 25 -24 2 2 7 18 12 34 14 41 82 75 152 75 l53 0 0 -40 0 -40
-49 0 c-51 0 -72 -13 -52 -33 9 -9 34 -7 99 6 196 41 183 36 176 63 -15 60 39
114 115 114 31 0 44 -6 60 -26 12 -15 21 -35 21 -45 0 -24 8 -24 128 2 128 27
132 28 132 44 0 10 -9 11 -37 5 -20 -5 -41 -7 -45 -4 -10 6 -10 55 0 70 4 6
59 21 122 33 63 12 123 25 133 27 16 5 18 0 15 -37 -3 -42 -4 -44 -46 -52 -24
-5 -42 -13 -40 -18 4 -12 7 -13 58 -4 l40 7 0 48 c0 26 6 52 13 58 16 13 109
32 158 32 42 0 89 -34 89 -65 0 -8 7 -15 15 -15 11 0 15 13 15 54 0 59 -1 57
68 71 l32 7 0 -51 c0 -56 15 -67 31 -23 24 63 97 110 185 119 l54 6 0 -47 c0
-34 4 -46 15 -46 11 0 15 12 15 49 0 28 3 52 8 54 4 3 26 8 50 12 l42 7 0 -46
c0 -26 5 -46 11 -46 5 0 21 24 35 54 23 52 26 54 77 64 28 6 53 9 55 7 2 -2
-6 -21 -17 -44 -25 -47 -25 -51 -8 -51 7 0 19 19 27 43 19 54 78 87 157 87
l53 0 0 -40 c0 -22 3 -40 8 -40 4 1 270 58 592 128 386 85 587 125 592 118 3
-6 12 -71 18 -143z m-1854 -2525 c4 -6 3 -13 -3 -15 -6 -2 -19 -10 -29 -18
-18 -14 -16 -15 19 -13 51 3 76 -21 57 -56 -12 -24 -77 -59 -92 -49 -17 10 -6
29 25 43 l32 14 -42 3 c-23 2 -47 10 -53 18 -17 20 -3 53 28 70 33 18 49 19
58 3z m-1702 -42 c19 -8 37 -24 41 -36 10 -32 -25 -120 -47 -120 -10 0 -21 6
-23 13 -3 6 -17 13 -30 13 -34 2 -55 21 -55 49 0 37 25 50 71 38 48 -13 50 5
2 21 -17 6 -28 16 -26 24 6 16 26 15 67 -2z m1381 -32 c0 -12 -8 -20 -22 -22
-17 -3 -23 2 -23 16 0 20 16 33 35 28 6 -2 10 -11 10 -22z m219 -16 c9 -12 16
-33 16 -46 0 -28 -42 -72 -69 -72 -18 0 -19 -3 -9 -31 8 -25 8 -33 -3 -40 -28
-18 -37 -7 -68 79 -35 99 -37 112 -16 113 20 2 25 3 65 21 39 18 59 12 84 -24z
m-1397 -42 c-2 -6 -23 -24 -46 -40 l-43 -29 31 -13 c22 -9 29 -18 25 -29 -4
-9 -12 -14 -18 -12 -6 2 -35 12 -63 21 -29 10 -55 22 -58 27 -3 5 18 23 46 41
52 32 52 32 26 41 -25 8 -35 26 -21 39 10 10 125 -33 121 -46z m1110 -2 c20 8
29 -25 10 -35 -23 -13 -7 -63 22 -67 14 -2 21 -9 19 -20 -2 -13 -14 -17 -43
-17 -37 0 -40 2 -50 37 -6 21 -18 43 -28 50 -17 12 -17 16 -3 42 21 41 39 50
50 25 5 -11 16 -17 23 -15z m107 -43 c18 -54 18 -63 6 -71 -29 -18 -37 -9 -55
56 -15 56 -16 67 -4 75 24 15 33 5 53 -60z m-1164 39 c12 -7 12 -16 3 -52 -13
-48 -10 -58 17 -58 15 0 23 11 31 45 10 38 15 45 35 45 13 0 24 -6 24 -12 -1
-16 -28 -129 -32 -133 -2 -1 -14 2 -28 8 -14 5 -33 9 -43 8 -10 -1 -30 5 -44
14 -22 15 -24 22 -19 55 8 48 23 90 33 90 5 0 15 -4 23 -10z m568 -108 l3
-103 -33 0 c-18 0 -48 -1 -67 -1 -22 0 -39 6 -48 18 -18 24 -16 75 3 103 13
19 24 22 55 19 l39 -4 0 39 c0 34 3 38 23 35 21 -3 22 -8 25 -106z m-378 56
c0 -5 8 -4 19 1 21 12 31 5 31 -21 0 -12 -7 -18 -24 -18 -25 0 -27 -4 -40 -62
-6 -28 -38 -39 -50 -19 -5 8 7 91 19 128 4 13 45 6 45 -9z m697 -78 c-11 -50
-15 -55 -42 -58 -27 -3 -33 3 -63 57 -34 62 -35 81 -3 81 11 0 25 -15 36 -40
21 -46 35 -44 35 6 0 27 5 37 23 43 28 11 32 -12 14 -89z m-515 53 c10 -9 18
-29 18 -46 0 -28 -1 -29 -45 -25 -27 2 -44 -1 -42 -7 2 -5 20 -11 40 -13 40
-3 46 -12 22 -32 -22 -18 -86 -5 -107 21 -24 28 -23 60 3 93 24 31 81 36 111
9z m361 -15 c29 -39 17 -58 -38 -58 -31 0 -44 -4 -39 -11 4 -7 22 -9 45 -6 33
4 39 2 39 -13 0 -21 -19 -30 -66 -30 -45 0 -74 29 -74 74 0 71 91 101 133 44z
m242 -53 c0 -22 -31 -33 -48 -16 -7 7 -6 15 3 26 17 21 45 15 45 -10z"/>
<path d="M4455 4420 l-30 -5 -3 -88 -3 -89 33 7 c69 15 108 54 108 108 0 52
-42 79 -105 67z"/>
<path d="M2271 3937 c-1 -11 -15 -73 -31 -139 -17 -67 -29 -122 -28 -124 5 -4
112 18 120 25 4 3 -8 62 -27 131 -18 69 -34 117 -34 107z"/>
<path d="M5095 3710 c-8 -13 35 -13 55 0 11 7 7 10 -17 10 -17 0 -35 -4 -38
-10z"/>
<path d="M4595 3600 c-18 -8 -18 -9 5 -9 14 0 32 4 40 9 12 8 12 10 -5 9 -11
0 -29 -4 -40 -9z"/>
<path d="M4120 3505 c0 -9 9 -15 25 -15 16 0 25 6 25 15 0 9 -9 15 -25 15 -16
0 -25 -6 -25 -15z"/>
<path d="M3444 3385 c-9 -23 14 -45 26 -25 5 8 8 19 7 24 -6 17 -27 18 -33 1z"/>
<path d="M2812 3228 c2 -18 8 -22 28 -20 31 5 34 7 27 27 -4 8 -18 15 -32 15
-22 0 -26 -4 -23 -22z"/>
<path d="M2793 1168 c2 -7 10 -13 17 -13 7 0 15 6 18 13 2 7 -5 12 -18 12 -13
0 -20 -5 -17 -12z"/>
<path d="M4361 1186 c-17 -20 3 -56 30 -56 25 0 34 22 19 49 -13 24 -33 27
-49 7z"/>
<path d="M3577 1044 c-13 -13 -7 -52 9 -58 22 -9 46 13 42 38 -3 21 -37 34
-51 20z"/>
<path d="M3416 1061 c-3 -5 3 -11 14 -14 13 -3 20 0 20 9 0 15 -26 19 -34 5z"/>
<path d="M3765 1050 c-4 -6 5 -10 20 -10 15 0 24 4 20 10 -3 6 -12 10 -20 10
-8 0 -17 -4 -20 -10z"/>
</g>
</svg>
